<svg width="68" height="68" viewBox="0 0 68 68" fill="none" xmlns="http://www.w3.org/2000/svg">
<path opacity="0.4" d="M53.8333 29.1267V49.385C53.7483 57.46 51.5383 59.5 43.1233 59.5H16.3767C7.82008 59.5 5.66666 57.375 5.66666 48.9317V29.1267C5.66666 21.4767 7.45166 19.0117 14.1667 18.615C14.8467 18.5867 15.5834 18.5583 16.3767 18.5583H43.1233C51.6799 18.5583 53.8333 20.6833 53.8333 29.1267Z" fill="#F15126"/>
<path d="M62.3333 19.0683V38.8733C62.3333 46.5233 60.5483 48.9883 53.8333 49.385V29.1267C53.8333 20.6833 51.6799 18.5583 43.1233 18.5583H16.3768C15.5834 18.5583 14.8467 18.5867 14.1667 18.615C14.2517 10.54 16.4618 8.5 24.8768 8.5H51.6233C60.1799 8.5 62.3333 10.625 62.3333 19.0683Z" fill="#F15126"/>
<path d="M19.7201 52.5867H14.8466C13.685 52.5867 12.7216 51.6233 12.7216 50.4617C12.7216 49.3 13.685 48.3367 14.8466 48.3367H19.7201C20.8817 48.3367 21.8451 49.3 21.8451 50.4617C21.8451 51.6233 20.9101 52.5867 19.7201 52.5867Z" fill="#F15126"/>
<path d="M35.5583 52.5867H25.8116C24.65 52.5867 23.6866 51.6233 23.6866 50.4617C23.6866 49.3 24.65 48.3367 25.8116 48.3367H35.5583C36.72 48.3367 37.6833 49.3 37.6833 50.4617C37.6833 51.6233 36.7483 52.5867 35.5583 52.5867Z" fill="#F15126"/>
<path d="M53.8333 33.6033H5.66666V37.8533H53.8333V33.6033Z" fill="#F15126"/>
</svg>
