<svg width="68" height="68" viewBox="0 0 68 68" fill="none" xmlns="http://www.w3.org/2000/svg">
<path d="M7.6783 48.2234L12.6083 38.3634C13.9683 35.615 13.9683 32.4134 12.6083 29.665L7.6783 19.7767C3.45664 11.3334 12.5516 2.40836 20.91 6.82836L25.2733 9.15169C25.8966 9.46336 26.3783 9.97336 26.6333 10.5967L42.755 46.4384C43.4066 47.9117 42.8116 49.64 41.395 50.3767L20.8816 61.1717C12.5516 65.5917 3.45664 56.6667 7.6783 48.2234Z" fill="#F15126"/>
<path opacity="0.4" d="M46.2117 44.2L35.6433 20.74C34.4533 18.105 37.2867 15.4416 39.8367 16.8016L56.185 25.415C63.1267 29.07 63.1267 38.9866 56.185 42.6416L50.405 45.6733C48.8467 46.4666 46.9483 45.815 46.2117 44.2Z" fill="#F15126"/>
</svg>
