<svg width="68" height="68" viewBox="0 0 68 68" fill="none" xmlns="http://www.w3.org/2000/svg">
<path opacity="0.4" d="M51.1133 38.3916C49.9233 39.5533 49.2433 41.225 49.4133 43.01C49.6683 46.07 52.4733 48.3083 55.5333 48.3083H60.9167V51.68C60.9167 57.545 56.1283 62.3333 50.2633 62.3333H17.7367C11.8717 62.3333 7.08334 57.545 7.08334 51.68V32.6117C7.08334 26.7467 11.8717 21.9583 17.7367 21.9583H50.2633C56.1283 21.9583 60.9167 26.7467 60.9167 32.6117V36.6917H55.1933C53.6067 36.6917 52.1617 37.3149 51.1133 38.3916Z" fill="#F15126"/>
<path d="M42.075 11.1916V21.9583H17.7367C11.8717 21.9583 7.08334 26.7466 7.08334 32.6116V22.2134C7.08334 18.8417 9.15168 15.8382 12.2967 14.6482L34.7933 6.14823C38.3067 4.8449 42.075 7.42332 42.075 11.1916Z" fill="#F15126"/>
<path d="M63.92 39.5816V45.4184C63.92 46.9768 62.6733 48.2516 61.0867 48.3083H55.5333C52.4733 48.3083 49.6683 46.07 49.4133 43.01C49.2433 41.225 49.9233 39.5533 51.1133 38.3916C52.1617 37.315 53.6067 36.6917 55.1933 36.6917H61.0867C62.6733 36.7484 63.92 38.0233 63.92 39.5816Z" fill="#F15126"/>
<path d="M39.6667 36.125H19.8333C18.6717 36.125 17.7083 35.1617 17.7083 34C17.7083 32.8383 18.6717 31.875 19.8333 31.875H39.6667C40.8283 31.875 41.7917 32.8383 41.7917 34C41.7917 35.1617 40.8283 36.125 39.6667 36.125Z" fill="#F15126"/>
</svg>
