<svg width="85" height="16" viewBox="0 0 85 16" fill="none" xmlns="http://www.w3.org/2000/svg">
<path d="M9.40804 7.95986C9.40804 8.20072 9.39683 8.45305 9.36319 8.70538H2.50059C2.60151 9.3362 2.84821 9.81792 3.22946 10.162C3.62193 10.5061 4.11532 10.6667 4.72084 10.6667C5.13574 10.6667 5.50578 10.5749 5.84218 10.3799C6.17858 10.1849 6.43649 9.93262 6.62712 9.6H9.21742C8.88101 10.6093 8.30913 11.4122 7.50176 12.0086C6.6944 12.605 5.76369 12.9032 4.70963 12.9032C3.36402 12.9032 2.24268 12.433 1.34561 11.4925C0.448536 10.552 0 9.39355 0 7.99427C0 7.44373 0.0784938 6.91613 0.224268 6.41147C0.370042 5.90681 0.594312 5.4595 0.874647 5.0466C1.15498 4.64516 1.49138 4.30107 1.87264 4.00287C2.25389 3.70466 2.68 3.48674 3.16218 3.32617C3.64436 3.16559 4.16017 3.0853 4.69841 3.0853C5.6067 3.0853 6.42528 3.30323 7.14294 3.73907C7.87181 4.17491 8.42126 4.77133 8.80252 5.51685C9.21741 6.26237 9.40804 7.0767 9.40804 7.95986ZM4.72084 5.23011C4.17138 5.23011 3.71164 5.39068 3.33038 5.70036C2.94913 6.01004 2.70243 6.43441 2.56787 6.98495H6.96352C6.85139 6.60645 6.68319 6.2853 6.47013 6.03297C6.25708 5.78064 5.99917 5.57419 5.70762 5.43656C5.40486 5.29892 5.07967 5.23011 4.72084 5.23011Z" fill="#BDB6B4"/>
<path d="M16.7977 3.3491H19.3543L15.7436 12.6394H13.4673L9.77809 3.3491H12.3796L14.6223 9.57706L16.7977 3.3491Z" fill="#BDB6B4"/>
<path d="M29.1436 7.95986C29.1436 8.20072 29.1324 8.45305 29.0988 8.70538H22.2362C22.3371 9.3362 22.5838 9.81792 22.965 10.162C23.3575 10.5061 23.8509 10.6667 24.4564 10.6667C24.8713 10.6667 25.2414 10.5749 25.5778 10.3799C25.9142 10.1849 26.1721 9.93262 26.3627 9.6H28.953C28.6166 10.6093 28.0447 11.4122 27.2373 12.0086C26.43 12.605 25.4993 12.9032 24.4452 12.9032C23.0996 12.9032 21.9783 12.433 21.0812 11.4925C20.1841 10.552 19.7356 9.39355 19.7356 7.99427C19.7356 7.44373 19.8141 6.91613 19.9599 6.41147C20.1056 5.90681 20.3299 5.4595 20.6102 5.0466C20.8906 4.64516 21.227 4.30107 21.6082 4.00287C21.9895 3.70466 22.4156 3.48674 22.8978 3.32617C23.3799 3.16559 23.8958 3.0853 24.434 3.0853C25.3423 3.0853 26.1609 3.30323 26.8785 3.73907C27.6074 4.17491 28.1568 4.77133 28.5381 5.51685C28.9418 6.26237 29.1436 7.0767 29.1436 7.95986ZM24.4452 5.23011C23.8958 5.23011 23.436 5.39068 23.0547 5.70036C22.6735 6.01004 22.4268 6.43441 22.2922 6.98495H26.6879C26.5758 6.60645 26.4076 6.2853 26.1945 6.03297C25.9814 5.78064 25.7235 5.57419 25.432 5.43656C25.1292 5.29892 24.804 5.23011 24.4452 5.23011Z" fill="#BDB6B4"/>
<path d="M35.5353 3.30323H36.3426V5.67742H35.2886C34.5933 5.67742 34.0999 5.84946 33.7972 6.17061C33.4944 6.50323 33.3486 7.05376 33.3486 7.79928V12.6394H30.8929V3.3491H32.474L32.9113 4.48459C33.5169 3.69319 34.4027 3.30323 35.5353 3.30323Z" fill="#BDB6B4"/>
<path d="M44.0126 3.3491H46.6365L42.667 12.5247C42.1063 13.8093 41.5344 14.7039 40.9513 15.2201C40.3682 15.7362 39.5721 16 38.5741 16H37.5649V13.729H38.4283C39.0114 13.729 39.4263 13.6143 39.673 13.3964C39.9197 13.1785 40.1888 12.7082 40.4804 12.0086L40.514 11.9398L36.6566 3.3491H39.3254L41.7475 9.06093L44.0126 3.3491Z" fill="#BDB6B4"/>
<path d="M52.2544 10.4029H53.3646V12.6394H51.6265C50.9649 12.6394 50.393 12.5133 49.8996 12.238C49.4174 11.9742 49.0362 11.5957 48.7783 11.091C48.5204 10.5864 48.3858 10.0014 48.3858 9.31326V5.36774H46.7374V4.84014L50.3369 0.929033H50.7855V3.3491H53.2861V5.35627H50.8303V8.99211C50.8303 9.43943 50.9537 9.78351 51.1892 10.0358C51.4583 10.2767 51.8059 10.4029 52.2544 10.4029Z" fill="#BDB6B4"/>
<path d="M63.7706 7.95986C63.7706 8.20072 63.7594 8.45305 63.7257 8.70538H56.8632C56.9641 9.3362 57.2108 9.81792 57.592 10.162C57.9845 10.5061 58.4779 10.6667 59.0834 10.6667C59.4983 10.6667 59.8683 10.5749 60.2047 10.3799C60.5411 10.1849 60.799 9.93262 60.9897 9.6H63.5912C63.2548 10.6093 62.6829 11.4122 61.8755 12.0086C61.0682 12.605 60.1375 12.9032 59.0834 12.9032C57.7378 12.9032 56.6165 12.433 55.7194 11.4925C54.8223 10.552 54.3738 9.39355 54.3738 7.99427C54.3738 7.44373 54.4523 6.91613 54.598 6.41147C54.7438 5.90681 54.9681 5.4595 55.2484 5.0466C55.5288 4.64516 55.8652 4.30107 56.2464 4.00287C56.6277 3.70466 57.0538 3.48674 57.536 3.32617C58.0181 3.16559 58.5339 3.0853 59.0722 3.0853C59.9805 3.0853 60.799 3.30323 61.5167 3.73907C62.2456 4.17491 62.795 4.77133 63.1763 5.51685C63.58 6.26237 63.7706 7.0767 63.7706 7.95986ZM59.0834 5.23011C58.5339 5.23011 58.0742 5.39068 57.6929 5.70036C57.3117 6.01004 57.065 6.43441 56.9304 6.98495H61.3261C61.2139 6.60645 61.0457 6.2853 60.8327 6.03297C60.6196 5.78064 60.3617 5.57419 60.0702 5.43656C59.7674 5.29892 59.4422 5.23011 59.0834 5.23011Z" fill="#BDB6B4"/>
<path d="M69.7473 12.9032C68.8503 12.9032 68.0317 12.6853 67.3028 12.2609C66.5627 11.8251 65.9908 11.2401 65.5647 10.4832C65.1386 9.72616 64.9368 8.88889 64.9368 7.97133C64.9368 6.58351 65.3965 5.42509 66.316 4.49606C67.2355 3.56702 68.3905 3.09677 69.7698 3.09677C70.9472 3.09677 71.9564 3.44086 72.7974 4.1405C73.6384 4.84014 74.1654 5.75771 74.3897 6.90466H71.9452C71.7433 6.45735 71.4518 6.10179 71.0593 5.84946C70.6668 5.59713 70.2295 5.4595 69.7361 5.4595C69.0745 5.4595 68.5251 5.70036 68.0765 6.18208C67.628 6.6638 67.4149 7.27168 67.4149 7.99427C67.4149 8.71685 67.6392 9.32473 68.0877 9.81792C68.5363 10.3111 69.0858 10.5634 69.7361 10.5634C70.2295 10.5634 70.6668 10.4258 71.0481 10.162C71.4293 9.89821 71.7209 9.50824 71.9452 9.00358H74.4121C74.1878 10.1849 73.6496 11.1369 72.7974 11.848C71.9452 12.5362 70.9247 12.9032 69.7473 12.9032Z" fill="#BDB6B4"/>
<path d="M81.2298 3.13118C82.2615 3.13118 83.0688 3.48674 83.6744 4.18638C84.2687 4.88602 84.5714 5.82652 84.5714 7.00789V12.6394H82.1157V7.40932C82.1157 6.70968 81.9924 6.18208 81.7344 5.83799C81.4765 5.49391 81.0841 5.32186 80.5346 5.32186C79.9179 5.32186 79.4245 5.53979 79.0545 5.97563C78.6844 6.41147 78.505 7.00789 78.505 7.75341V12.6394H76.0381V0H78.4938V4.22079C79.2339 3.48674 80.1422 3.13118 81.2298 3.13118Z" fill="#BDB6B4"/>
</svg>
