<svg width="14" height="18" viewBox="0 0 14 18" fill="none" xmlns="http://www.w3.org/2000/svg">
<path d="M8.50781 0.9375C5.07812 2.91406 5.49219 8.47656 5.49219 8.47656C5.49219 8.47656 3.98438 7.96875 3.98438 5.71094C2.17969 6.75781 0.96875 8.76562 0.96875 11C0.96875 14.3281 3.67187 17.0312 7 17.0312C10.3281 17.0312 13.0312 14.3281 13.0312 11C13.0312 6.09375 8.50781 5.08594 8.50781 0.9375ZM7.52344 14.9531C6.30469 15.2578 5.08594 14.5156 4.78125 13.3047C4.47656 12.0938 5.21875 10.8672 6.42969 10.5625C9.35937 9.82812 9.71875 8.1875 9.71875 8.1875C9.71875 8.1875 11.1797 14.0469 7.52344 14.9531Z" fill="white"/>
</svg>
