<svg viewBox="0 0 16 13" fill="none" xmlns="http://www.w3.org/2000/svg">
<path d="M8.40001 12.6L14.1 6.9C15.5 5.5 15.7 3.2 14.4 1.7C14.1 1.3 13.7 1 13.2 0.8C12.7 0.6 12.3 0.5 11.8 0.5C11.3 0.5 10.8 0.6 10.3 0.8C9.80001 1 9.40001 1.3 9.10001 1.6L8.00001 2.6L7.10001 1.7C5.70001 0.3 3.40001 0.1 1.90001 1.4C1.50001 1.7 1.20001 2.1 1.00001 2.6C0.800012 3 0.700012 3.5 0.700012 4C0.700012 4.5 0.800012 5 1.00001 5.5C1.20001 6 1.50001 6.4 1.80001 6.7L7.70001 12.6C7.80001 12.7 7.90001 12.8 8.10001 12.8C8.10001 12.7 8.30001 12.7 8.40001 12.6Z" fill="white"/>
</svg>
