<svg width="24" height="24" viewBox="0 0 24 24" fill="none" xmlns="http://www.w3.org/2000/svg">
<path d="M16.2 10C16.2 10 16 11 13 15C10.1 18.8 14.3 21.6 14.8 22H14.9C15.5 21.5 23.1 16.7 16.2 10Z" stroke="#140A07" stroke-width="1.5" stroke-miterlimit="10" stroke-linecap="round" stroke-linejoin="round"/>
<path d="M13.8 7.79995C13.8 5.49995 12.9 3.39995 12 2.19995C11.7 1.89995 11.2 1.99995 11.1 2.39995C10.7 3.89995 9.49999 7.09995 6.59999 10.8999C2.89999 15.6999 6.29999 20.8999 9.79999 21.8999C11.7 22.3999 9.29999 20.8999 8.99999 17.7999C8.69999 13.8999 13.8 10.9999 13.8 7.79995Z" stroke="#140A07" stroke-width="1.5" stroke-miterlimit="10" stroke-linecap="round" stroke-linejoin="round"/>
</svg>
