<svg width="196" height="46" viewBox="0 0 196 46" fill="none" xmlns="http://www.w3.org/2000/svg">
<g clip-path="url(#clip0_1_873)">
<path d="M72.1896 3.16544C72.8718 2.50387 72.8856 1.41733 72.2263 0.735081C71.5648 0.0528339 70.4782 0.0390512 69.796 0.698326C69.5456 0.941822 63.9314 6.39061 61.5079 8.90366V1.97323C61.5079 0.882097 60.7384 0 59.7897 0C58.8409 0 58.0714 0.884394 58.0714 1.97323V20.2124C58.0714 21.3036 58.8409 22.1856 59.7897 22.1856C60.7384 22.1856 61.5079 21.3013 61.5079 20.2124V14.9428L69.6788 21.5792C69.9958 21.8365 70.3794 21.9628 70.7608 21.9628C71.2592 21.9628 71.7554 21.7469 72.0954 21.3288C72.6926 20.5914 72.5801 19.5095 71.845 18.9122L63.6764 12.2804C63.5593 12.1725 63.5317 12.0461 63.5271 11.9588C63.5248 11.8738 63.5432 11.7475 63.6488 11.6349C65.7691 9.39295 72.1229 3.22517 72.1873 3.16314L72.1896 3.16544Z" fill="#F15126"/>
<path d="M61.1105 29.2379C60.2629 28.5625 59.027 28.7003 58.3471 29.548L49.5927 40.5191L49.4158 40.7809C49.046 41.4379 48.4097 41.8905 47.67 42.0237C46.928 42.1546 46.1746 41.9571 45.598 41.4724L37.9991 35.0818C35.0404 32.594 30.7493 32.5963 27.7929 35.0818L20.6489 41.0911C20.0332 41.6079 19.2361 41.7986 18.4505 41.6171C17.6695 41.4356 17.0355 40.9073 16.7139 40.1722L4.25885 11.6694C3.73051 10.4611 3.84307 9.1357 4.56437 8.03308C5.28567 6.93046 6.4572 6.29645 7.77346 6.29645H16.2935C17.3801 6.29645 18.2599 5.41665 18.2599 4.33011C18.2599 3.24357 17.3801 2.36377 16.2935 2.36377H7.77346C5.14324 2.36377 2.71288 3.67773 1.27029 5.87838C-0.170015 8.07902 -0.399728 10.8333 0.652358 13.2453L13.1074 41.748C13.9298 43.6317 15.5515 44.9801 17.5523 45.4487C19.5531 45.915 21.6045 45.4257 23.178 44.1026L30.3221 38.0933C31.8106 36.8391 33.9722 36.8391 35.4653 38.0933L43.0643 44.4839C44.2404 45.4717 45.706 45.9977 47.2106 45.9977C47.5965 45.9977 47.9847 45.9633 48.3706 45.892C50.2106 45.559 51.8002 44.4563 52.7558 42.8575L61.4206 31.999C62.0983 31.1491 61.9604 29.9132 61.1105 29.2356V29.2379Z" fill="#F15126"/>
<path d="M37.5558 21.9284C41.6424 22.6703 46.0023 21.1496 48.7589 18.0991C50.1371 16.5807 51.1433 14.7338 51.5797 12.7192C52.0116 10.7069 51.7773 8.58205 50.9779 6.703C49.3998 2.96557 45.3109 0.231988 41.2105 0.891264C37.1905 1.4242 33.7104 5.41431 34.4661 9.56522C34.7831 11.5844 36.0994 13.3968 37.8797 14.3754C39.6461 15.4068 41.98 15.377 43.7052 14.2697C45.4326 13.2131 46.5812 11.1227 46.2297 9.07364C45.9426 7.04527 44.2151 5.27878 42.1225 5.08582C40.0344 4.863 37.9141 6.50545 37.7372 8.66704C37.6499 9.72372 38.0496 10.8172 38.8307 11.5499C39.2373 11.9129 39.6324 12.2138 40.2434 12.3562C40.8613 12.4573 41.5114 12.053 41.6998 11.4512C41.9111 10.8562 41.6309 10.1395 41.0704 9.83858C40.6109 9.6617 40.4203 9.34929 40.3973 8.95878C40.4065 8.18694 41.3575 7.51618 42.1431 7.75968C42.9586 7.96872 43.6041 8.77271 43.6569 9.62495C43.7327 10.4703 43.2159 11.3363 42.5153 11.8532C41.8077 12.3815 40.8613 12.5699 40.016 12.3402C39.1729 12.1035 38.3781 11.543 37.8751 10.8034C36.7885 9.31254 36.9424 7.22215 38.1094 5.78874C39.189 4.3071 41.0819 3.5054 42.8782 3.67309C44.6654 3.85686 46.3767 4.96407 47.4288 6.44572C48.497 7.94115 48.9541 9.85925 48.6417 11.6533C48.3339 13.4382 47.3048 15.1358 45.961 16.3785C43.2389 18.9237 38.9478 19.5118 35.6859 17.7269C32.3252 16.1074 29.9155 12.733 29.3895 9.07823C29.1138 7.25431 29.2539 5.36607 29.8719 3.63174L30.1108 2.98395L30.1705 2.82085C30.2095 2.71748 30.2486 2.60722 30.2739 2.49466C30.3244 2.26954 30.3359 2.03523 30.306 1.80552C30.2049 0.879779 29.378 0.107943 28.4476 0.0734862C27.9859 0.0459207 27.5265 0.186046 27.159 0.459404C26.9752 0.594935 26.8144 0.764922 26.6857 0.955584C26.5479 1.16003 26.4767 1.36677 26.4468 1.45636C26.2769 1.95483 26.0793 2.44412 25.9369 2.94949C24.7401 7.01311 25.4889 11.5086 27.6666 15.037C29.842 18.5883 33.4738 21.1772 37.5604 21.9261L37.5558 21.9284Z" fill="#F15126"/>
<path d="M195.075 6.70301C193.496 2.96557 189.407 0.231988 185.307 0.891265C181.287 1.4242 177.807 5.41431 178.563 9.56523C178.88 11.5844 180.196 13.3968 181.976 14.3754C183.743 15.4068 186.077 15.377 187.802 14.2698C189.529 13.2131 190.678 11.1227 190.326 9.07364C190.039 7.04528 188.312 5.27878 186.219 5.08582C184.131 4.863 182.011 6.50545 181.834 8.66705C181.747 9.72373 182.146 10.8172 182.927 11.5499C183.334 11.9129 183.729 12.2138 184.34 12.3562C184.958 12.4573 185.608 12.053 185.796 11.4512C186.008 10.8562 185.727 10.1395 185.167 9.83859C184.708 9.66171 184.517 9.3493 184.494 8.95879C184.503 8.18695 185.454 7.51619 186.24 7.75968C187.055 7.96872 187.701 8.77272 187.754 9.62496C187.829 10.4703 187.313 11.3363 186.612 11.8532C185.904 12.3815 184.958 12.5699 184.113 12.3402C183.27 12.1036 182.475 11.5431 181.972 10.8034C180.885 9.31254 181.039 7.22216 182.206 5.78875C183.286 4.3071 185.178 3.5054 186.975 3.67309C188.762 3.85686 190.473 4.96408 191.525 6.44573C192.594 7.94116 193.051 9.85926 192.738 11.6533C192.431 13.4382 191.401 15.1358 190.058 16.3785C187.335 18.9237 183.044 19.5118 179.783 17.7269C176.422 16.1075 174.012 12.733 173.486 9.07824C173.21 7.25432 173.351 5.36608 173.968 3.63174L174.207 2.98395L174.267 2.82085C174.306 2.71748 174.345 2.60722 174.37 2.49466C174.421 2.26954 174.432 2.03524 174.403 1.80552C174.302 0.879779 173.475 0.107943 172.544 0.0734862C172.083 0.0459207 171.623 0.186046 171.256 0.459404C171.072 0.594935 170.911 0.764922 170.782 0.955584C170.645 1.16003 170.573 1.36677 170.543 1.45636C170.373 1.95484 170.176 2.44412 170.034 2.94949C168.837 7.01312 169.586 11.5086 171.763 15.037C173.939 18.5884 177.57 21.1772 181.657 21.9261C185.744 22.6681 190.104 21.1474 192.86 18.0968C194.238 16.5784 195.244 14.7315 195.681 12.7169C196.113 10.7046 195.879 8.57976 195.079 6.70071L195.075 6.70301Z" fill="#F15126"/>
<path d="M152.562 19.3189C144.4 19.544 141.202 23.0678 139.959 25.9851C139.76 26.4514 139.757 26.9637 139.95 27.4323C140.15 27.9147 140.531 28.2869 141.025 28.4844C141.267 28.5809 141.517 28.6291 141.774 28.6291C142.571 28.6291 143.286 28.1651 143.591 27.4484C145.041 24.0532 149.329 23.2309 152.674 23.139C157.539 22.9851 159.712 25.6911 160.294 26.5801C160.314 26.6467 160.328 26.7133 160.356 26.7776C161.649 29.865 161.235 33.313 159.223 36.2349C156.784 39.7771 152.396 41.9088 147.487 41.941H147.365C137.676 41.941 129.372 34.3237 128.853 24.9606C128.577 19.9667 130.371 15.2254 133.907 11.6097C137.446 7.98943 142.227 5.99552 147.37 5.99552C147.88 5.99552 148.397 6.01619 148.909 6.05754C151.082 6.22982 153.214 6.93504 155.07 8.09509C155.98 8.66248 157.197 8.4075 157.785 7.52311C158.068 7.09814 158.164 6.58818 158.059 6.092C157.948 5.58663 157.643 5.15477 157.197 4.87682C154.801 3.37909 152.047 2.46943 149.233 2.2466C148.62 2.19836 147.995 2.1731 147.372 2.1731C141.14 2.1731 135.347 4.58967 131.058 8.97489C126.769 13.3624 124.594 19.1121 124.929 25.1674C125.556 36.5266 135.622 45.768 147.368 45.768H147.515C153.726 45.7267 159.327 42.9586 162.492 38.3666C165.173 34.4776 165.759 29.8765 164.132 25.6819C164.102 25.4752 160.719 19.0846 152.566 19.3189H152.562Z" fill="#F15126"/>
<path d="M99.0201 25.2777C98.3975 24.5954 97.3386 24.5472 96.6563 25.172C95.9741 25.7945 95.9258 26.8535 96.5506 27.5357L100.332 31.6729C98.1632 35.0979 95.324 34.9164 93.7964 34.4869L93.7757 34.4823C89.8545 33.1132 89.781 30.584 89.7443 29.3666C89.7351 29.0886 89.7029 28.8474 89.6547 28.6361C89.5881 25.7026 91.3821 24.3267 92.4755 23.7616C93.0981 23.44 93.4955 22.8312 93.5391 22.1329C93.5828 21.4461 93.2566 20.7753 92.6892 20.3825C92.2918 20.1068 91.9702 19.4544 91.8392 19.0547C91.6118 17.7201 91.7588 16.6703 92.2803 15.933C92.951 14.9819 94.1065 14.7361 94.2489 14.7086C97.2007 14.3778 97.9427 16.1489 98.4044 17.835C98.5239 18.2737 98.6296 18.6528 98.9833 19.0065C99.638 19.6589 100.697 19.6566 101.349 18.9996C101.864 18.4805 101.972 17.7109 101.669 17.0884C101.657 17.0471 101.646 17.0011 101.63 16.9506C100.208 11.766 96.6012 11.063 93.8263 11.3892C93.801 11.3915 91.242 11.7108 89.6248 13.8908C88.49 15.423 88.1317 17.3939 88.5612 19.7508L88.5865 19.8955L88.6187 19.9828C88.722 20.3182 88.977 21.0349 89.4617 21.7608C87.9709 22.9714 86.1286 25.2432 86.3169 28.999L86.3973 30.5863H86.4869C86.9418 34.0136 89.039 36.3912 92.7305 37.6638L92.8867 37.7097C93.3921 37.8521 94.2903 38.0474 95.3975 38.0474C97.4971 38.0474 100.343 37.3376 102.645 34.2112L105.638 37.4869C105.969 37.8476 106.419 38.0313 106.874 38.0313C107.276 38.0313 107.68 37.8866 108.002 37.5926C108.684 36.97 108.732 35.9111 108.108 35.2288L99.0155 25.28L99.0201 25.2777Z" fill="#F15126"/>
</g>
<defs>
<clipPath id="clip0_1_873">
<rect width="195.89" height="46" fill="white"/>
</clipPath>
</defs>
</svg>
