<svg width="64" height="64" viewBox="0 0 64 64" fill="none" xmlns="http://www.w3.org/2000/svg">
<g clip-path="url(#clip0_2_969)">
<path d="M32 64C49.6731 64 64 49.6731 64 32C64 14.3269 49.6731 0 32 0C14.3269 0 0 14.3269 0 32C0 49.6731 14.3269 64 32 64Z" fill="#EA522B"/>
<path d="M42.0011 48.5034C40.9835 48.5034 39.9936 48.1472 39.2022 47.4794L34.0715 43.168C33.0646 42.3189 31.6054 42.3232 30.6006 43.168L25.7771 47.2234C24.7147 48.1173 23.3344 48.448 21.9798 48.1322C20.6294 47.8165 19.535 46.9056 18.9803 45.6341L10.5728 26.3936C9.86029 24.7659 10.0182 22.9056 10.991 21.4208C11.9638 19.9339 13.6043 19.0464 15.3814 19.0464H21.1328C21.8667 19.0464 22.4598 19.6416 22.4598 20.3733C22.4598 21.1051 21.8667 21.7003 21.1328 21.7003H15.3814C14.4896 21.7003 13.7003 22.1269 13.2139 22.8715C12.7254 23.616 12.6528 24.512 13.007 25.3269L21.4144 44.5674C21.632 45.0645 22.0587 45.4208 22.5878 45.5424C23.1126 45.6661 23.6566 45.5381 24.0704 45.1882L28.8939 41.1328C30.8928 39.4538 33.792 39.4538 35.7846 41.1328L40.9152 45.4442C41.3035 45.7728 41.8155 45.9072 42.3126 45.8176C42.8139 45.7258 43.2427 45.4208 43.4944 44.977L43.6139 44.8021L49.5232 37.3952C49.9819 36.8213 50.816 36.7296 51.3899 37.1861C51.9638 37.6448 52.0555 38.4789 51.599 39.0528L45.7515 46.3829C45.1051 47.4624 44.0299 48.2069 42.7883 48.433C42.528 48.48 42.2678 48.5034 42.0075 48.5034H42.0011Z" fill="white"/>
<path d="M35.5434 31.9273C34.9824 31.8249 34.4277 31.6607 33.888 31.4367C28.8746 29.3481 26.496 23.5732 28.5845 18.5599C28.7381 18.1908 29.1626 18.0159 29.5317 18.1695C29.9008 18.3231 30.0757 18.7476 29.9221 19.1167C28.1408 23.3919 30.1717 28.3177 34.4469 30.0991C36.0682 30.7753 37.856 30.7796 39.4794 30.1097C41.1029 29.442 42.3701 28.1791 43.0442 26.5577C43.569 25.2969 43.5733 23.906 43.0506 22.6431C42.5301 21.3801 41.5509 20.3945 40.288 19.8697C38.2826 19.0313 35.9637 19.9871 35.1274 21.9945C34.4896 23.5284 35.217 25.2948 36.7509 25.9348C37.905 26.4191 39.2341 25.8665 39.712 24.7145C39.8826 24.3028 39.8848 23.8505 39.7141 23.4388C39.5434 23.0271 39.2234 22.7049 38.8138 22.5343C38.2037 22.2825 37.5104 22.5705 37.2586 23.1743C37.088 23.586 37.2821 24.0575 37.6938 24.2303C38.0629 24.3839 38.2378 24.8084 38.0842 25.1775C37.9306 25.5465 37.5082 25.7215 37.137 25.5679C35.9914 25.09 35.4453 23.7673 35.9232 22.6196C36.1941 21.9689 36.7018 21.4633 37.3525 21.1945C38.0032 20.9279 38.7221 20.93 39.3706 21.1988C40.9557 21.8601 41.7088 23.6863 41.0496 25.2735C40.6677 26.1887 39.953 26.9012 39.0357 27.2788C38.1184 27.6564 37.1093 27.6543 36.1941 27.2745C33.9242 26.3295 32.8469 23.7119 33.7898 21.442C34.9333 18.6964 38.1013 17.3929 40.8448 18.5364C44.1856 19.9273 45.7706 23.778 44.3797 27.1188C43.5562 29.0964 42.0096 30.6367 40.0298 31.4537C38.5898 32.0468 37.0432 32.2068 35.5456 31.9337L35.5434 31.9273Z" fill="white"/>
<path d="M35.4837 32.2539C32.7232 31.7483 30.272 30.0011 28.8043 27.6032C27.3344 25.2203 26.8288 22.1867 27.6373 19.4432C27.7333 19.1019 27.8656 18.7712 27.9808 18.4341C28 18.3723 28.0491 18.2336 28.1408 18.0949C28.2261 17.9669 28.3349 17.8517 28.4587 17.76C28.7061 17.5765 29.0176 17.4805 29.3291 17.4997C29.9563 17.5232 30.5152 18.0437 30.5835 18.6688C30.6027 18.8224 30.5963 18.9824 30.5621 19.1339C30.5451 19.2107 30.5195 19.2853 30.4939 19.3536L30.4533 19.4624L30.2933 19.8997C29.8752 21.0709 29.7813 22.3467 29.9669 23.5776C30.3211 26.0459 31.9467 28.3221 34.2165 29.4165C36.4181 30.6219 39.3152 30.2251 41.152 28.5056C42.0587 27.6672 42.7541 26.5216 42.9611 25.3163C43.1723 24.1045 42.8629 22.8096 42.1419 21.8005C41.4336 20.7979 40.2773 20.0533 39.0699 19.9275C37.856 19.8144 36.5803 20.3563 35.8507 21.3568C35.0635 22.3253 34.9589 23.7355 35.6928 24.7424C36.032 25.2416 36.5696 25.6192 37.1392 25.7792C37.7088 25.9349 38.3488 25.8069 38.8267 25.4507C39.3003 25.1008 39.648 24.5163 39.5989 23.9467C39.5627 23.3707 39.1275 22.8288 38.5771 22.688C38.0459 22.5237 37.4037 22.976 37.3973 23.4987C37.4123 23.7611 37.5403 23.9723 37.8517 24.0917C38.2315 24.2944 38.4192 24.7765 38.2763 25.1797C38.1504 25.5851 37.7109 25.8581 37.2928 25.7899C36.8811 25.6939 36.6144 25.4912 36.3392 25.2459C35.8123 24.7509 35.5413 24.0128 35.6011 23.3003C35.7205 21.8411 37.152 20.7317 38.5621 20.8832C39.9765 21.0133 41.1413 22.2059 41.3355 23.5755C41.5723 24.9579 40.7979 26.3701 39.6309 27.0827C38.4661 27.8293 36.8917 27.8507 35.6992 27.1531C34.4981 26.4917 33.6085 25.2672 33.3952 23.9061C32.8853 21.1029 35.2341 18.4107 37.9477 18.0501C40.7168 17.6043 43.4773 19.4496 44.5419 21.9733C45.0816 23.2405 45.2395 24.6763 44.9493 26.0352C44.6549 27.3963 43.9765 28.6421 43.0464 29.6683C41.1861 31.7269 38.2443 32.7552 35.4837 32.2539ZM35.6032 31.6011C38.1291 32.1088 40.8875 31.2085 42.6603 29.312C43.5456 28.3712 44.2112 27.1957 44.5035 25.9392C44.7979 24.6784 44.6741 23.3301 44.1856 22.1248C43.2256 19.7376 40.6229 17.8944 37.9883 18.3189C35.4048 18.6453 33.1499 21.2181 33.6277 23.8677C33.824 25.1627 34.6645 26.3275 35.8037 26.9632C36.9344 27.6288 38.4128 27.6139 39.5243 26.912C40.6315 26.24 41.3717 24.9045 41.152 23.6053C40.9749 22.3083 39.8293 21.2181 38.5451 21.1221C37.2544 21.0027 35.9851 22.0501 35.9061 23.3237C35.8656 23.9467 36.1109 24.5845 36.5717 25.0027C36.7872 25.2032 37.0987 25.3931 37.3397 25.4421C37.5936 25.4784 37.8517 25.3099 37.9243 25.0667C38.0053 24.8277 37.8859 24.5461 37.6661 24.4331C37.3397 24.3328 36.9856 23.9275 36.9941 23.5093C37.0112 22.6475 37.8965 22.0715 38.6773 22.2656C39.4389 22.4512 39.9979 23.1424 40.0661 23.9083C40.1387 24.6912 39.7099 25.4101 39.1296 25.856C38.5408 26.3104 37.7408 26.4875 37.0112 26.3019C36.2901 26.1099 35.6651 25.6747 35.2341 25.0773C34.3168 23.8997 34.4427 22.1077 35.3451 20.9835C36.1856 19.7952 37.6768 19.1232 39.1317 19.2341C40.6037 19.3707 41.9051 20.1984 42.7648 21.3525C43.6224 22.5088 44.0107 24.0107 43.7867 25.4485C43.5563 26.8949 42.7989 28.1728 41.7685 29.1648C39.7077 31.1744 36.3328 31.6907 33.7664 30.3467C31.1787 29.1499 29.2736 26.5941 28.8171 23.7653C28.5781 22.3552 28.6656 20.8789 29.1243 19.5136L29.3035 19.0037L29.3547 18.8587V18.8245C29.3547 18.7755 29.312 18.7328 29.2608 18.7285C29.2373 18.7243 29.2096 18.7328 29.1883 18.7477L29.1605 18.7733C29.1605 18.7733 29.1477 18.7925 29.1136 18.8907C29.0112 19.1872 28.8875 19.4795 28.8 19.7803C28.0896 22.1888 28.352 24.8981 29.6299 27.1168C30.8715 29.3355 33.0901 31.0464 35.6053 31.6011H35.6032Z" fill="white"/>
</g>
<defs>
<clipPath id="clip0_2_969">
<rect width="64" height="64" fill="white"/>
</clipPath>
</defs>
</svg>
