<svg width="33" height="26" viewBox="0 0 33 26" fill="none" xmlns="http://www.w3.org/2000/svg">
<path d="M11.7052 23.7646L11.4517 23.7C11.1982 23.6354 11.0081 23.6354 11.0081 23.4417C11.0081 23.2479 11.1982 23.1188 11.5151 23.1188C11.832 23.1188 12.2122 23.2479 12.339 23.3771L12.5925 22.9251C12.339 22.7313 11.9587 22.6667 11.5151 22.6667C10.8179 22.6667 10.4377 22.9896 10.4377 23.5062C10.4377 23.9583 10.7546 24.2166 11.325 24.2812L11.5785 24.3457C11.8954 24.4103 12.0221 24.4749 12.0221 24.6041C12.0221 24.7978 11.832 24.9269 11.3883 24.9269C11.0081 24.9269 10.6912 24.7978 10.501 24.6686L10.2475 25.1207C10.5644 25.379 10.9447 25.4436 11.3883 25.4436C12.1489 25.4436 12.5925 25.0561 12.5925 24.5395C12.6559 24.0874 12.2756 23.8937 11.7052 23.7646Z" fill="#BDB6B4"/>
<path d="M14.5572 24.9267C14.2403 24.9267 14.1769 24.733 14.1769 24.4747V23.2477H15.1276V22.7311H14.1769V21.8916H13.6065V22.7311H13.0361V23.2477H13.6065V24.4747C13.6065 25.1205 13.86 25.4433 14.5572 25.4433C14.8107 25.4433 15.1275 25.3788 15.2543 25.2496L15.0642 24.733C14.874 24.8621 14.6839 24.9267 14.5572 24.9267Z" fill="#BDB6B4"/>
<path d="M9.10668 23.0542C8.91655 22.7959 8.66302 22.6667 8.28276 22.6667C7.52223 22.6667 6.95184 23.2479 6.95184 24.0874C6.95184 24.9269 7.52223 25.5081 8.28276 25.5081C8.66302 25.5081 8.91655 25.379 9.10668 25.1207V25.4436H9.67708V24.0874V22.7313H9.10668V23.0542ZM8.34614 24.9269C7.83912 24.9269 7.52224 24.5395 7.52224 24.0874C7.52224 23.6354 7.83912 23.2479 8.34614 23.2479C8.85316 23.2479 9.17006 23.6354 9.17006 24.0874C9.17006 24.5395 8.85316 24.9269 8.34614 24.9269Z" fill="#BDB6B4"/>
<path d="M5.43092 22.6667C5.11403 22.6667 4.73376 22.7959 4.48025 23.1188C4.29012 22.7959 4.03661 22.6667 3.59296 22.6667C3.33945 22.6667 3.02257 22.7313 2.83244 23.0542V22.7313H2.26202V25.4436H2.83244V23.8937C2.83244 23.4417 3.08595 23.1834 3.46622 23.1834C3.84649 23.1834 4.03662 23.4417 4.03662 23.8937V25.379H4.60702V23.8937C4.60702 23.4417 4.86053 23.1834 5.2408 23.1834C5.62106 23.1834 5.81119 23.4417 5.81119 23.8937V25.379H6.38159V23.7C6.44497 23.0542 6.0647 22.6667 5.43092 22.6667Z" fill="#BDB6B4"/>
<path d="M27.4229 23.0541V22.7312H26.8525V25.4434H27.4229V23.8936C27.4229 23.4416 27.613 23.1832 27.9933 23.1832C28.12 23.1832 28.2468 23.1832 28.3735 23.2478L28.5636 22.6666C28.4369 22.602 28.2468 22.6021 28.12 22.6021C27.7398 22.6666 27.5496 22.7958 27.4229 23.0541Z" fill="#BDB6B4"/>
<path d="M16.9022 22.6667C16.1416 22.6667 15.5712 23.2479 15.5712 24.0874C15.5712 24.9269 16.1416 25.5081 16.9656 25.5081C17.3458 25.5081 17.7261 25.379 18.043 25.1207L17.7895 24.6686C17.536 24.8624 17.2825 24.9269 17.029 24.9269C16.6487 24.9269 16.3318 24.7332 16.205 24.2812H18.1698C18.1698 24.2166 18.1698 24.152 18.1698 24.0874C18.1698 23.1834 17.6627 22.6667 16.9022 22.6667ZM16.205 23.8291C16.2684 23.4417 16.5219 23.1834 16.9022 23.1834C17.2825 23.1834 17.536 23.4417 17.5994 23.8291H16.205Z" fill="#BDB6B4"/>
<path d="M25.4582 23.0542C25.268 22.7959 25.0145 22.6667 24.6343 22.6667C23.8737 22.6667 23.3033 23.2479 23.3033 24.0874C23.3033 24.9269 23.8737 25.5081 24.6343 25.5081C25.0145 25.5081 25.268 25.379 25.4582 25.1207V25.4436H26.0285V24.0874V22.7313H25.4582V23.0542ZM24.6976 24.9269C24.1906 24.9269 23.8737 24.5395 23.8737 24.0874C23.8737 23.6354 24.1906 23.2479 24.6976 23.2479C25.2047 23.2479 25.5215 23.6354 25.5215 24.0874C25.5215 24.5395 25.2047 24.9269 24.6976 24.9269Z" fill="#BDB6B4"/>
<path d="M30.8451 23.054C30.655 22.7957 30.4014 22.6665 30.0212 22.6665C29.2606 22.6665 28.6902 23.2477 28.6902 24.0872C28.6902 24.9267 29.2606 25.5079 30.0212 25.5079C30.4014 25.5079 30.655 25.3788 30.8451 25.1205V25.4433H31.4155V24.0872V21.6333H30.8451V23.054ZM30.0846 24.9267C29.5775 24.9267 29.2606 24.5393 29.2606 24.0872C29.2606 23.6352 29.5775 23.2477 30.0846 23.2477C30.5916 23.2477 30.9085 23.6352 30.9085 24.0872C30.9085 24.5393 30.5916 24.9267 30.0846 24.9267Z" fill="#BDB6B4"/>
<path d="M22.0356 23.1834C22.2892 23.1834 22.5427 23.2479 22.7328 23.4417L22.9863 22.9896C22.6694 22.7313 22.4159 22.6667 22.0356 22.6667C21.1484 22.6667 20.6414 23.2479 20.6414 24.0874C20.6414 24.9269 21.2118 25.5081 22.0356 25.5081C22.4159 25.5081 22.7328 25.4436 22.9863 25.1853L22.7328 24.7332C22.5427 24.8624 22.2892 24.9915 22.0356 24.9915C21.592 24.9915 21.2118 24.6686 21.2118 24.152C21.2118 23.6354 21.592 23.1834 22.0356 23.1834Z" fill="#BDB6B4"/>
<path d="M19.3738 23.0541V22.7312H18.8034V25.4434H19.3738V23.8936C19.3738 23.4416 19.5639 23.1832 19.9442 23.1832C20.0709 23.1832 20.1976 23.1832 20.3244 23.2478L20.5145 22.6666C20.3878 22.602 20.1976 22.6021 20.0709 22.6021C19.6907 22.6666 19.5005 22.7958 19.3738 23.0541Z" fill="#BDB6B4"/>
<path d="M12.9728 10.1384C12.9728 13.3673 14.4938 16.2732 16.7754 18.146C19.1204 16.2732 20.5781 13.4318 20.5781 10.1384C20.5781 6.84498 19.057 4.00359 16.7754 2.13086C14.4938 4.00359 12.9728 6.90956 12.9728 10.1384Z" fill="#BDB6B4"/>
<path d="M21.592 10.1386C21.592 13.4966 20.1344 16.5963 17.5992 18.6628C19.1837 19.696 21.0216 20.2772 22.9863 20.2772C28.5002 20.2772 33 15.7568 33 10.1386C33 4.52039 28.5636 0 22.9863 0C21.0216 0 19.1203 0.581193 17.5992 1.61442C20.1344 3.74547 21.592 6.84516 21.592 10.1386Z" fill="#BDB6B4"/>
<path d="M10.6278 20.2772C12.5925 20.2772 14.4938 19.696 16.0149 18.6628C13.4798 16.5317 12.0221 13.432 12.0221 10.1386C12.0221 6.78058 13.4798 3.68089 16.0149 1.61442C14.4304 0.581193 12.5925 0 10.6278 0C5.11393 0 0.614126 4.52039 0.614126 10.1386C0.550748 15.7568 5.05055 20.2772 10.6278 20.2772Z" fill="#BDB6B4"/>
</svg>
