<svg width="51" height="16" viewBox="0 0 51 16" fill="none" xmlns="http://www.w3.org/2000/svg">
<path d="M28.203 1.97441L25.0341 9.07788H24.7173V0.424561H20.1541V15.0835H24.0201C25.0341 15.0835 25.9848 14.5023 26.3651 13.5337L29.5339 6.43022H29.8508V15.0835H34.414V0.424561H30.548C29.5339 0.424561 28.6466 1.00575 28.203 1.97441Z" fill="#BDB6B4"/>
<path d="M11.1544 2.36187L9.25312 9.07788H8.93623L7.0349 2.36187C6.71801 1.19948 5.70398 0.424561 4.56318 0.424561H0V15.019H4.56318V6.43022H4.88007L7.47855 15.0835H10.7108L13.3093 6.43022H13.6262V15.019H18.1894V0.424561H13.6262C12.4854 0.424561 11.4713 1.19948 11.1544 2.36187Z" fill="#BDB6B4"/>
<path d="M36.3787 15.0837H40.8785V10.4342H45.7586C47.8501 10.4342 49.6881 9.07806 50.3218 7.07617H36.3153V15.0837H36.3787Z" fill="#BDB6B4"/>
<path d="M45.7586 0.424561H35.6816C36.3154 3.84714 39.1674 6.43022 42.7165 6.43022H50.512C50.5753 6.10734 50.5753 5.78445 50.5753 5.46157C50.6387 2.68476 48.4205 0.424561 45.7586 0.424561Z" fill="#BDB6B4"/>
</svg>
