<svg width="64" height="64" viewBox="0 0 64 64" fill="none" xmlns="http://www.w3.org/2000/svg">
<path d="M21.5734 31.0133H9.06673C9.28006 18.56 11.7334 16.5066 19.3867 11.9733C20.2667 11.44 20.56 10.32 20.0267 9.41332C19.4934 8.53332 18.3733 8.24001 17.4666 8.77334C8.4533 14.1067 5.30664 17.36 5.30664 32.88V47.2533C5.30664 51.8133 9.01338 55.4933 13.5467 55.4933H21.5467C26.24 55.4933 29.7866 51.9467 29.7866 47.2533V39.2533C29.8133 34.56 26.2667 31.0133 21.5734 31.0133Z" fill="#F15126"/>
<path opacity="0.4" d="M50.4266 31.0133H37.9199C38.1333 18.56 40.5867 16.5066 48.2401 11.9733C49.1201 11.44 49.4134 10.32 48.8801 9.41332C48.3467 8.53332 47.2267 8.24001 46.32 8.77334C37.3067 14.1067 34.16 17.36 34.16 32.88V47.2533C34.16 51.8133 37.8667 55.4933 42.4001 55.4933H50.4001C55.0934 55.4933 58.64 51.9467 58.64 47.2533V39.2533C58.6666 34.56 55.1199 31.0133 50.4266 31.0133Z" fill="#F15126"/>
</svg>
