<svg width="68" height="68" viewBox="0 0 68 68" fill="none" xmlns="http://www.w3.org/2000/svg">
<path opacity="0.4" d="M25.16 13.0334C22.8933 3.23002 8.13167 3.20169 5.865 13.0334C4.53333 18.785 8.18833 23.6584 11.3617 26.69C13.685 28.8717 17.34 28.8717 19.6633 26.69C22.8367 23.6584 26.4633 18.785 25.16 13.0334ZM15.6117 17.5667C14.0533 17.5667 12.7783 16.2917 12.7783 14.7334C12.7783 13.175 14.025 11.9 15.5833 11.9H15.6117C17.1983 11.9 18.445 13.175 18.445 14.7334C18.445 16.2917 17.1983 17.5667 15.6117 17.5667Z" fill="#F15126"/>
<path d="M18.445 14.7334C18.445 16.2917 17.1983 17.5667 15.6117 17.5667C14.0533 17.5667 12.7783 16.2917 12.7783 14.7334C12.7783 13.175 14.025 11.9 15.5833 11.9H15.6117C17.1983 11.9 18.445 13.175 18.445 14.7334Z" fill="#F15126"/>
<path opacity="0.4" d="M62.0783 47.0334C59.8117 37.23 44.9933 37.2017 42.6983 47.0334C41.3667 52.785 45.0217 57.6584 48.2233 60.69C50.5467 62.8717 54.23 62.8717 56.5533 60.69C59.755 57.6584 63.41 52.785 62.0783 47.0334ZM52.5017 51.5667C50.9433 51.5667 49.6683 50.2917 49.6683 48.7334C49.6683 47.175 50.915 45.9 52.4733 45.9H52.5017C54.06 45.9 55.335 47.175 55.335 48.7334C55.335 50.2917 54.06 51.5667 52.5017 51.5667Z" fill="#F15126"/>
<path d="M55.335 48.7334C55.335 50.2917 54.06 51.5667 52.5017 51.5667C50.9433 51.5667 49.6683 50.2917 49.6683 48.7334C49.6683 47.175 50.915 45.9 52.4733 45.9H52.5017C54.06 45.9 55.335 47.175 55.335 48.7334Z" fill="#F15126"/>
<path d="M34 55.9584H26.4067C23.12 55.9584 20.2583 53.975 19.125 50.915C17.9633 47.855 18.8133 44.4834 21.2783 42.3017L43.9167 22.4967C45.2767 21.3067 45.305 19.6917 44.9083 18.5867C44.4833 17.4817 43.4067 16.2917 41.5933 16.2917H34C32.8383 16.2917 31.875 15.3284 31.875 14.1667C31.875 13.005 32.8383 12.0417 34 12.0417H41.5933C44.88 12.0417 47.7417 14.025 48.875 17.085C50.0367 20.145 49.1867 23.5167 46.7217 25.6984L24.0833 45.5034C22.7233 46.6934 22.695 48.3084 23.0917 49.4134C23.5167 50.5184 24.5933 51.7084 26.4067 51.7084H34C35.1617 51.7084 36.125 52.6717 36.125 53.8334C36.125 54.995 35.1617 55.9584 34 55.9584Z" fill="#F15126"/>
</svg>
