<svg width="15" height="15" viewBox="0 0 15 15" fill="none" xmlns="http://www.w3.org/2000/svg">
<path d="M5.98657 5.02348C6.59536 3.886 6.16678 2.47035 5.0293 1.86156C3.89182 1.25276 2.47617 1.68134 1.86737 2.81882C1.25857 3.95631 1.68716 5.37195 2.82464 5.98075C3.96212 6.58955 5.37777 6.16096 5.98657 5.02348Z" fill="white"/>
<path d="M12.7969 1.82803V1.83584C12.2969 1.44521 11.5625 1.53115 11.1563 2.03896L3.00002 12.5233C2.6094 13.0233 2.69534 13.7577 3.20315 14.164C3.71877 14.5546 4.44534 14.4687 4.84377 13.9608L13 3.46865C13.3906 2.96084 13.2969 2.23428 12.7969 1.82803Z" fill="white"/>
<path d="M12.0703 9.73438C10.7813 9.73438 9.73438 10.7813 9.73438 12.0703C9.73438 13.3594 10.7813 14.4062 12.0703 14.4062C13.3594 14.4062 14.4062 13.3594 14.4062 12.0703C14.4062 10.7813 13.3594 9.73438 12.0703 9.73438Z" fill="white"/>
</svg>
