<svg width="46" height="16" viewBox="0 0 46 16" fill="none" xmlns="http://www.w3.org/2000/svg">
<path d="M18.9681 0.683105L16.6865 14.8255H20.3624L22.6441 0.683105H18.9681Z" fill="#BDB6B4"/>
<path d="M29.9958 6.36564C28.7283 5.71987 27.9044 5.26783 27.9044 4.62206C27.9044 4.04087 28.5381 3.3951 29.9958 3.3951C31.2 3.3951 32.0873 3.65341 32.7211 3.91172L33.0379 4.04087L33.545 1.00575C32.8478 0.747446 31.707 0.424561 30.2493 0.424561C26.6368 0.424561 24.1017 2.36187 24.1017 5.13868C24.1017 7.20514 25.9396 8.30295 27.334 9.0133C28.7283 9.72365 29.2353 10.1757 29.2353 10.7569C29.2353 11.7255 28.0945 12.113 27.0171 12.113C25.5594 12.113 24.7988 11.9193 23.5947 11.3381L23.0877 11.0798L22.5806 14.244C23.4679 14.6315 24.989 14.9544 26.6368 15.019C30.5028 15.019 32.9746 13.1462 33.0379 10.1757C33.1013 8.62584 32.1507 7.3343 29.9958 6.36564Z" fill="#BDB6B4"/>
<path d="M42.9882 0.683105H40.1362C39.249 0.683105 38.6152 0.941414 38.2349 1.84549L32.7845 14.8255H36.6505C36.6505 14.8255 37.2843 13.0819 37.411 12.6944C37.8547 12.6944 41.5939 12.6944 42.1009 12.6944C42.2277 13.211 42.5446 14.8255 42.5446 14.8255H45.9036L42.9882 0.683105ZM38.4884 9.85304C38.8053 9.01354 39.9461 5.91384 39.9461 5.91384C39.9461 5.91384 40.263 5.07434 40.4531 4.55773L40.7066 5.78469C40.7066 5.78469 41.4038 9.20727 41.5305 9.91762C40.9601 9.85304 39.1856 9.85304 38.4884 9.85304Z" fill="#BDB6B4"/>
<path d="M13.6445 0.683105L10.0319 10.3697L9.65165 8.43235L8.3841 1.91007C8.19397 1.00599 7.49681 0.747682 6.73628 0.747682H0.84216L0.778778 1.00599C2.23646 1.39345 3.50402 1.91007 4.64482 2.55584L7.87709 14.89H11.7431L17.5105 0.747682H13.6445V0.683105Z" fill="#BDB6B4"/>
</svg>
