<svg width="61" height="17" viewBox="0 0 61 17" fill="none" xmlns="http://www.w3.org/2000/svg">
<g clip-path="url(#clip0_2_573)">
<path d="M0 14.5844C0.0104167 14.5289 0.0364583 14.5037 0.0572917 14.4684C1.03646 13.0614 2.02083 11.6594 3 10.2524C3.11979 10.081 3.24479 9.90448 3.36979 9.73302C3.41667 9.6725 3.40104 9.64224 3.34375 9.6019C2.77083 9.2035 2.22396 8.77485 1.73958 8.27559C0.989583 7.49896 0.515625 6.59626 0.375 5.53219C0.260417 4.64966 0.3125 3.77722 0.645833 2.94008C1.03125 1.95165 1.72917 1.23554 2.68229 0.741323C3.44271 0.347968 4.26562 0.15129 5.11458 0.0605162C5.60417 0.010086 6.09375 0 6.58854 0C7.70312 0 8.82292 0 9.9375 0C10.0365 0 10.0573 0.0302581 10.0573 0.115989C10.0573 4.89677 10.0573 9.68259 10.0573 14.4634C10.0573 14.5592 10.0312 14.5844 9.93229 14.5844C9.13542 14.5844 8.34375 14.5844 7.54687 14.5844C7.44271 14.5844 7.41667 14.5592 7.41667 14.4583C7.41667 10.3432 7.41667 6.22812 7.41667 2.11807C7.41667 1.95165 7.4375 1.97686 7.26562 1.97686C6.76562 1.97686 6.26562 1.95669 5.77083 1.99703C5.27604 2.03233 4.79167 2.13319 4.34375 2.35004C3.57812 2.71314 3.10417 3.29813 2.98958 4.1151C2.88021 4.87155 2.96354 5.61792 3.32812 6.31385C3.59375 6.8232 4 7.2216 4.44792 7.57965C5.03646 8.04361 5.6875 8.42688 6.3125 8.8404C6.40625 8.90596 6.5 8.96648 6.60417 9.027C6.67188 9.06734 6.67187 9.0976 6.63021 9.15307C6.03646 10.0003 5.44271 10.8475 4.84896 11.6998C4.20312 12.6328 3.55208 13.5607 2.90625 14.4936C2.85937 14.5642 2.80729 14.5844 2.72396 14.5844C1.85417 14.5844 0.989583 14.5844 0.119792 14.5844H0.00520833H0Z" fill="#1E1E1E"/>
<path d="M31.4583 8.31598C31.4583 9.70785 31.4583 11.1048 31.4583 12.4966C31.4583 12.5874 31.474 12.6126 31.5729 12.6126C31.8854 12.6076 32.2031 12.6126 32.5156 12.6126C32.5885 12.6126 32.6146 12.6227 32.6146 12.7034C32.6146 14.1104 32.6146 15.5174 32.6146 16.9244C32.6146 16.99 32.599 17.0051 32.5312 17.0051C31.7917 17.0051 31.0469 17.0051 30.3073 17.0051C30.2188 17.0051 30.2083 16.9748 30.2083 16.9042C30.2083 16.173 30.2083 15.4418 30.2083 14.7105C30.2083 14.6147 30.1875 14.5895 30.0833 14.5895C28.224 14.5895 26.3594 14.5895 24.5 14.5895C24.4063 14.5895 24.3802 14.6046 24.3802 14.7004C24.3802 15.4367 24.3802 16.173 24.3802 16.9042C24.3802 16.99 24.3542 17.0051 24.2708 17.0051C23.5417 17.0051 22.8125 17.0051 22.0781 17.0051C21.9948 17.0051 21.9688 16.9849 21.9688 16.9042C21.9688 15.5124 21.9688 14.1154 21.9688 12.7236C21.9688 12.6378 21.9948 12.6126 22.0833 12.6126C22.2813 12.6177 22.4792 12.6126 22.6823 12.6126C22.7604 12.6126 22.7969 12.5925 22.8281 12.5269C23.0938 11.9671 23.2656 11.3821 23.3958 10.782C23.6198 9.76333 23.724 8.72951 23.7917 7.69065C23.8698 6.51058 23.8802 5.32547 23.8698 4.14037C23.8698 4.04455 23.8958 4.02942 23.9896 4.02942C26.4323 4.02942 28.8802 4.02942 31.3229 4.02942C31.4323 4.02942 31.4479 4.05968 31.4479 4.15549C31.4479 5.54232 31.4479 6.92915 31.4479 8.31598H31.4583ZM25.2083 12.6025C25.2344 12.6025 25.2552 12.6076 25.276 12.6076C26.4427 12.6076 27.6094 12.6076 28.7812 12.6076C28.8646 12.6076 28.8646 12.5723 28.8646 12.5168C28.8646 10.3735 28.8646 8.23025 28.8646 6.09201C28.8646 6.02645 28.849 6.00628 28.776 6.00628C27.9219 6.00628 27.0625 6.00628 26.2083 6.00628C26.1302 6.00628 26.1146 6.02645 26.1146 6.09705C26.125 7.35277 26.0625 8.60848 25.8906 9.8541C25.7865 10.6206 25.6458 11.3771 25.3958 12.1134C25.3385 12.2747 25.276 12.4311 25.2135 12.5975L25.2083 12.6025Z" fill="#1E1E1E"/>
<path d="M42.0833 11.841V11.957C42.0833 12.5571 42.0833 13.1623 42.0833 13.7624C42.0833 13.8482 42.0521 13.8935 41.9844 13.9339C41.3698 14.3071 40.6927 14.534 39.9792 14.6601C39.1094 14.8164 38.2344 14.8416 37.3542 14.7206C36.4115 14.5945 35.5469 14.2819 34.8229 13.6515C34.2708 13.1724 33.9011 12.5824 33.6511 11.9116C33.3021 10.9686 33.2188 9.99025 33.25 8.99677C33.2708 8.30084 33.3698 7.60994 33.5886 6.94427C33.8646 6.092 34.2969 5.34059 35.0104 4.7556C35.5573 4.31181 36.1823 4.03445 36.8802 3.91341C37.7865 3.75204 38.6875 3.77725 39.5677 4.05966C40.5417 4.36729 41.2136 5.0027 41.6354 5.89532C41.9271 6.51057 42.0677 7.16616 42.1354 7.83688C42.2136 8.59333 42.1771 9.35483 42.1875 10.1163C42.1875 10.1869 42.1615 10.197 42.099 10.192C41.8333 10.192 41.5625 10.192 41.2969 10.192C39.5469 10.192 37.7969 10.192 36.0469 10.192C35.9427 10.192 35.9219 10.2222 35.9323 10.313C35.974 10.7064 36.0313 11.0947 36.1771 11.4678C36.4636 12.2041 37.0313 12.6076 37.8125 12.7437C38.6198 12.8849 39.4167 12.8093 40.2083 12.6076C40.849 12.4462 41.4636 12.2092 42.0208 11.8612C42.0365 11.8511 42.0521 11.8461 42.0781 11.8309L42.0833 11.841ZM37.7448 8.36135C38.3177 8.36135 38.8854 8.36135 39.4583 8.36135C39.5 8.36135 39.5521 8.38657 39.5521 8.30588C39.5521 7.81166 39.5261 7.31745 39.3594 6.84341C39.1302 6.18277 38.6563 5.82976 37.9479 5.80454C37.1875 5.77933 36.6146 6.07182 36.2761 6.75263C36.0365 7.23172 35.9688 7.7461 35.9323 8.26553C35.9271 8.34622 35.9531 8.36135 36.0313 8.36135C36.6042 8.36135 37.1719 8.36135 37.7448 8.36135Z" fill="#1E1E1E"/>
<path d="M12.2396 9.31946C12.2396 7.59475 12.2396 5.87508 12.2396 4.15037C12.2396 4.05455 12.2604 4.02933 12.3594 4.02933C13.1458 4.02933 13.9271 4.02933 14.7136 4.02933C14.8073 4.02933 14.8386 4.04951 14.8386 4.14532C14.8386 5.46155 14.8386 6.77778 14.8386 8.094C14.8386 8.19486 14.8698 8.20999 14.9636 8.20999C16.0417 8.20999 17.1198 8.20999 18.1979 8.20999C18.2969 8.20999 18.3125 8.17973 18.3125 8.094C18.3125 6.77778 18.3125 5.46155 18.3125 4.14532C18.3125 4.04951 18.3386 4.02429 18.4375 4.02429C19.2292 4.02429 20.0208 4.02429 20.8125 4.02429C20.8906 4.02429 20.9167 4.03942 20.9167 4.12011C20.9167 7.57457 20.9167 11.029 20.9167 14.4835C20.9167 14.5692 20.8854 14.5743 20.8125 14.5743C20.0156 14.5743 19.224 14.5743 18.4271 14.5743C18.3333 14.5743 18.3177 14.5491 18.3177 14.4633C18.3177 13.0715 18.3177 11.6745 18.3177 10.2827C18.3177 10.1869 18.2917 10.1616 18.1927 10.1616C17.125 10.1616 16.0521 10.1616 14.9844 10.1616C14.8802 10.1616 14.8438 10.1818 14.849 10.2928C14.849 11.6846 14.849 13.0715 14.8542 14.4633C14.8542 14.5541 14.8281 14.5793 14.7344 14.5793C13.9479 14.5793 13.1563 14.5793 12.3698 14.5793C12.2761 14.5793 12.25 14.5591 12.25 14.4684C12.25 12.7487 12.25 11.029 12.25 9.30937L12.2396 9.31946Z" fill="#1E1E1E"/>
<path d="M46.5469 9.43549C46.5208 9.48088 46.5312 9.52122 46.5312 9.55652C46.5312 11.1905 46.5312 12.8244 46.5312 14.4634C46.5312 14.5642 46.5052 14.5895 46.401 14.5895C45.6146 14.5895 44.8229 14.5895 44.0365 14.5895C43.9531 14.5895 43.9323 14.5693 43.9323 14.4886C43.9323 11.0392 43.9323 7.58975 43.9323 4.14033C43.9323 4.04955 43.9583 4.03442 44.0469 4.03442C44.8385 4.03442 45.6302 4.03442 46.4219 4.03442C46.5156 4.03442 46.5312 4.05964 46.5312 4.14537C46.5312 5.67845 46.5312 7.21152 46.5312 8.7446V8.90093C46.5729 8.84546 46.5989 8.8152 46.625 8.78494C47.7917 7.23169 48.9583 5.68349 50.125 4.13024C50.1771 4.06468 50.2239 4.03947 50.3073 4.03947C51.0989 4.03947 51.8906 4.03947 52.6823 4.03947H52.7917C52.7917 4.0899 52.7552 4.11007 52.7344 4.14033C51.5625 5.69862 50.3854 7.26195 49.2083 8.82024C49.1562 8.89085 49.1562 8.93119 49.2083 9.00179C50.5469 10.8223 51.8854 12.6479 53.224 14.4735C53.25 14.5088 53.2708 14.539 53.2969 14.5743C53.2604 14.5995 53.2292 14.5895 53.1979 14.5895C52.2864 14.5895 51.375 14.5895 50.4635 14.5895C50.3906 14.5895 50.3489 14.5642 50.3073 14.5088C49.2708 13.1018 48.2292 11.6998 47.1875 10.2978C46.9792 10.0154 46.7604 9.73303 46.5417 9.44053L46.5469 9.43549Z" fill="#1E1E1E"/>
<path d="M60.9948 12.1234V12.4109C60.9948 12.9606 60.9948 13.5103 60.9948 14.06C60.9948 14.1306 60.974 14.1659 60.9167 14.2012C60.4688 14.4886 59.9688 14.6449 59.4427 14.7206C58.4427 14.8567 57.4427 14.8366 56.4636 14.5743C54.974 14.1709 54.0104 13.2279 53.5261 11.8158C53.2136 10.903 53.1354 9.96503 53.1667 9.00685C53.1927 8.29579 53.3021 7.59985 53.5469 6.92913C53.9167 5.9054 54.5365 5.06322 55.5104 4.49335C56.1042 4.14539 56.75 3.94871 57.4375 3.87811C58.3594 3.78229 59.2761 3.83272 60.1823 4.04453C60.4375 4.10504 60.6875 4.18573 60.9219 4.30172C60.9688 4.32189 60.9948 4.34711 60.9948 4.40258C60.9948 5.0733 60.9948 5.73898 60.9948 6.4097C60.9948 6.41979 60.9948 6.42987 60.9896 6.445C60.974 6.445 60.9583 6.43996 60.9479 6.42987C60.1927 6.02139 59.375 5.81967 58.5156 5.80958C57.3177 5.79445 56.4896 6.37944 56.1146 7.47882C55.8646 8.21006 55.8281 8.96651 55.8646 9.728C55.8906 10.2525 55.9688 10.7669 56.1563 11.256C56.5573 12.3151 57.3386 12.8345 58.5052 12.8244C59.3906 12.8244 60.224 12.6277 60.9636 12.1386C60.9688 12.1335 60.9844 12.1335 61 12.1285L60.9948 12.1234Z" fill="#1E1E1E"/>
</g>
<defs>
<clipPath id="clip0_2_573">
<rect width="61" height="17" fill="white"/>
</clipPath>
</defs>
</svg>
